# xmcd
#
# Track frame offsets:
#	182
#	20065
#	37295
#	57222
#	74682
#	94207
#	113285
#	133382
#
# Disc length: 1992 seconds
#
# Revision: 0
# Processed by: cddbd v1.5.2PL0 Copyright (c) Steve Scherf et al.
# Submitted via: EasyCDDAExtractor 15.2.5.1
#
DISCID=7707c608
DTITLE=백영규 - 10집 Back To Baik (1993) by oreum.com
DYEAR=1993
DGENRE=Pop
TTITLE0=널 위한 눈물은 없을거야
TTITLE1=가을이 오면
TTITLE2=널 잃어버릴 것 같은 예감
TTITLE3=꽃상여
TTITLE4=아침이 오면
TTITLE5=그리움
TTITLE6=그대 품에 잠들었으면
TTITLE7=너를 보내
EXTD=
EXTT0=
EXTT1=
EXTT2=
EXTT3=
EXTT4=
EXTT5=
EXTT6=
EXTT7=
PLAYORDER=
